HIERARCHY
ROOT mixamorig:Hips
{
  OFFSET 0.000000 0.000000 0.000000
  CHANNELS 6 Xposition Yposition Zposition Zrotation Xrotation Yrotation
  JOINT mixamorig:Spine
  {
    OFFSET 0.000000 9.878500 1.258800
    CHANNELS 3 Zrotation Xrotation Yrotation
    JOINT mixamorig:Spine1
    {
      OFFSET 0.000000 11.272100 0.038100
      CHANNELS 3 Zrotation Xrotation Yrotation
      JOINT mixamorig:Spine2
      {
        OFFSET 0.000000 10.749001 -0.597600
        CHANNELS 3 Zrotation Xrotation Yrotation
        JOINT mixamorig:Neck
        {
          OFFSET 0.000000 12.015200 -1.691700
          CHANNELS 3 Zrotation Xrotation Yrotation
          JOINT mixamorig:Head
          {
            OFFSET 0.000000 8.810500 2.213900
            CHANNELS 3 Zrotation Xrotation Yrotation
            End Site
            {
              OFFSET 0.000000 18.232300 3.738000
            }
          }
        }
        JOINT mixamorig:LeftShoulder
        {
          OFFSET 6.002800 8.887900 -2.628900
          CHANNELS 3 Zrotation Xrotation Yrotation
          JOINT mixamorig:LeftArm
          {
            OFFSET 12.046300 0.000000 0.000000
            CHANNELS 3 Zrotation Xrotation Yrotation
            JOINT mixamorig:LeftForeArm
            {
              OFFSET 27.876501 0.000000 0.000000
              CHANNELS 3 Zrotation Xrotation Yrotation
              JOINT mixamorig:LeftHand
              {
                OFFSET 25.438500 0.000000 0.000000
                CHANNELS 3 Zrotation Xrotation Yrotation
                End Site
                {
                  OFFSET 10.0 0.0 0.0
                }
              }
            }
          }
        }
        JOINT mixamorig:RightShoulder
        {
          OFFSET -6.002800 8.887900 -2.628900
          CHANNELS 3 Zrotation Xrotation Yrotation
          JOINT mixamorig:RightArm
          {
            OFFSET -12.046300 0.000000 0.000000
            CHANNELS 3 Zrotation Xrotation Yrotation
            JOINT mixamorig:RightForeArm
            {
              OFFSET -27.876501 0.000000 0.000000
              CHANNELS 3 Zrotation Xrotation Yrotation
              JOINT mixamorig:RightHand
              {
                OFFSET -25.438500 0.000000 0.000000
                CHANNELS 3 Zrotation Xrotation Yrotation
                End Site
                {
                  OFFSET -10.0 0.0 0.0
                }
              }
            }
          }
        }
      }
    }
  }
}
MOTION
Frames: 17
Frame Time: 0.033333
45.0233 -98.3128 -0.0158 0.0000 0.0000 0.0000 -1.2682 -24.0338 0.2700 0.0000 0.0000 0.0000 0.0000 0.0000 0.0000 0.0000 0.0000 0.0000 0.0000 0.0000 0.0000 0.0000 0.0000 0.0000 -80.3995 -16.0973 -18.9991 -83.8218 14.2888 15.8993 0.0000 0.0000 0.0000 0.0000 0.0000 0.0000 82.7876 -7.0337 7.9771 81.1642 14.6504 -17.0702 0.0000 0.0000 0.0000
44.9956 -98.2758 -0.0154 0.0000 0.0000 0.0000 -1.3775 -24.6287 0.3007 0.0000 0.0000 0.0000 0.0000 0.0000 0.0000 0.0000 0.0000 0.0000 0.0000 0.0000 0.0000 0.0000 0.0000 0.0000 -77.9960 -18.7212 -23.0138 -87.9168 -0.7160 -0.7425 0.0000 0.0000 0.0000 0.0000 0.0000 0.0000 80.7956 -11.5705 13.5788 82.8558 10.7635 -12.1866 0.0000 0.0000 0.0000
44.9247 -98.2463 -0.0145 0.0000 0.0000 0.0000 -1.4790 -24.3390 0.3190 0.0000 0.0000 0.0000 0.0000 0.0000 0.0000 0.0000 0.0000 0.0000 0.0000 0.0000 0.0000 0.0000 0.0000 0.0000 -78.1229 -18.5870 -22.8000 -88.1767 0.7777 0.8029 0.0000 0.0000 0.0000 0.0000 0.0000 0.0000 81.5117 -10.1749 11.7954 81.9784 11.8133 -13.5792 0.0000 0.0000 0.0000
44.9074 -98.2290 -0.0131 0.0000 0.0000 0.0000 -1.5230 -25.5667 0.3456 0.0000 0.0000 0.0000 0.0000 0.0000 0.0000 0.0000 0.0000 0.0000 0.0000 0.0000 0.0000 0.0000 0.0000 0.0000 -77.5747 -18.9907 -23.5134 -88.1780 -2.1523 -2.2219 0.0000 0.0000 0.0000 0.0000 0.0000 0.0000 81.4472 -10.0431 11.6561 79.5228 15.8920 -19.0464 0.0000 0.0000 0.0000
44.9208 -98.1910 -0.0129 0.0000 0.0000 0.0000 -1.5243 -27.1714 0.3684 0.0000 0.0000 0.0000 0.0000 0.0000 0.0000 0.0000 0.0000 0.0000 0.0000 0.0000 0.0000 0.0000 0.0000 0.0000 -78.9185 -17.5322 -21.2209 -87.1609 7.8946 8.2945 0.0000 0.0000 0.0000 0.0000 0.0000 0.0000 81.2763 -10.3767 12.0787 78.8237 16.7181 -20.2757 0.0000 0.0000 0.0000
44.8884 -98.2651 -0.0133 0.0000 0.0000 0.0000 -1.5908 -26.5678 0.3756 0.0000 0.0000 0.0000 0.0000 0.0000 0.0000 0.0000 0.0000 0.0000 0.0000 0.0000 0.0000 0.0000 0.0000 0.0000 -78.8426 -17.5999 -21.3304 -87.2906 7.8850 8.2657 0.0000 0.0000 0.0000 0.0000 0.0000 0.0000 80.9410 -11.0816 12.9734 80.3092 14.5981 -17.2648 0.0000 0.0000 0.0000
44.8804 -98.1793 -0.0123 0.0000 0.0000 0.0000 -1.6235 -26.5398 0.3829 0.0000 0.0000 0.0000 0.0000 0.0000 0.0000 0.0000 0.0000 0.0000 0.0000 0.0000 0.0000 0.0000 0.0000 0.0000 -78.3576 -18.0975 -22.1144 -87.9822 5.5538 5.7526 0.0000 0.0000 0.0000 0.0000 0.0000 0.0000 81.4203 -10.0850 11.7101 79.6558 15.5312 -18.5732 0.0000 0.0000 0.0000
44.8826 -98.2124 -0.0116 0.0000 0.0000 0.0000 -1.6215 -26.6304 0.3838 0.0000 0.0000 0.0000 0.0000 0.0000 0.0000 0.0000 0.0000 0.0000 0.0000 0.0000 0.0000 0.0000 0.0000 0.0000 -76.1289 -20.1877 -25.6140 -87.7739 -6.5565 -6.8157 0.0000 0.0000 0.0000 0.0000 0.0000 0.0000 80.4178 -12.1669 14.3716 83.2538 8.9445 -10.0595 0.0000 0.0000 0.0000
44.8866 -98.2791 -0.0127 0.0000 0.0000 0.0000 -1.6154 -25.7425 0.3691 0.0000 0.0000 0.0000 0.0000 0.0000 0.0000 0.0000 0.0000 0.0000 0.0000 0.0000 0.0000 0.0000 0.0000 0.0000 -76.5386 -19.8432 -25.0035 -88.5564 -0.1014 -0.1040 0.0000 0.0000 0.0000 0.0000 0.0000 0.0000 81.0990 -10.8673 12.6878 80.5288 14.3721 -16.9336 0.0000 0.0000 0.0000
44.9026 -98.3620 -0.0128 0.0000 0.0000 0.0000 -1.5997 -26.5254 0.3771 0.0000 0.0000 0.0000 0.0000 0.0000 0.0000 0.0000 0.0000 0.0000 0.0000 0.0000 0.0000 0.0000 0.0000 0.0000 -75.3423 -20.8737 -26.8369 -88.4984 -2.7444 -2.8172 0.0000 0.0000 0.0000 0.0000 0.0000 0.0000 80.4169 -12.2236 14.4386 81.7048 12.5054 -14.4417 0.0000 0.0000 0.0000
44.9073 -98.3672 -0.0127 0.0000 0.0000 0.0000 -1.6127 -26.5658 0.3807 0.0000 0.0000 0.0000 0.0000 0.0000 0.0000 0.0000 0.0000 0.0000 0.0000 0.0000 0.0000 0.0000 0.0000 0.0000 -75.1018 -21.0600 -27.1863 -88.6034 -1.4022 -1.4368 0.0000 0.0000 0.0000 0.0000 0.0000 0.0000 80.5023 -11.9808 14.1314 81.8623 12.1843 -14.0331 0.0000 0.0000 0.0000
44.8995 -98.2812 -0.0128 0.0000 0.0000 0.0000 -1.6327 -26.9519 0.3913 0.0000 0.0000 0.0000 0.0000 0.0000 0.0000 0.0000 0.0000 0.0000 0.0000 0.0000 0.0000 0.0000 0.0000 0.0000 -74.2832 -21.7065 -28.4089 -88.1070 -5.2319 -5.4075 0.0000 0.0000 0.0000 0.0000 0.0000 0.0000 80.3789 -12.2058 14.4271 82.1908 11.3662 -13.0181 0.0000 0.0000 0.0000
44.8477 -98.3935 -0.0127 0.0000 0.0000 0.0000 -1.6889 -26.9478 0.4047 0.0000 0.0000 0.0000 0.0000 0.0000 0.0000 0.0000 0.0000 0.0000 0.0000 0.0000 0.0000 0.0000 0.0000 0.0000 -74.1155 -21.8191 -28.6371 -87.9629 -5.8934 -6.1064 0.0000 0.0000 0.0000 0.0000 0.0000 0.0000 78.9397 -14.5256 17.5953 83.9140 6.5256 -7.2565 0.0000 0.0000 0.0000
44.8464 -98.3980 -0.0127 0.0000 0.0000 0.0000 -1.7020 -27.0850 0.4100 0.0000 0.0000 0.0000 0.0000 0.0000 0.0000 0.0000 0.0000 0.0000 0.0000 0.0000 0.0000 0.0000 0.0000 0.0000 -73.5971 -22.2132 -29.4090 -88.1738 -4.8897 -5.0479 0.0000 0.0000 0.0000 0.0000 0.0000 0.0000 79.1975 -14.2031 17.1291 83.4409 7.9536 -8.9169 0.0000 0.0000 0.0000
44.8397 -98.3420 -0.0120 0.0000 0.0000 0.0000 -1.7089 -27.8081 0.4231 0.0000 0.0000 0.0000 0.0000 0.0000 0.0000 0.0000 0.0000 0.0000 0.0000 0.0000 0.0000 0.0000 0.0000 0.0000 -72.6313 -22.8595 -30.7602 -88.1816 -4.9333 -5.0922 0.0000 0.0000 0.0000 0.0000 0.0000 0.0000 78.8965 -14.7142 17.8361 82.9944 9.0612 -10.2369 0.0000 0.0000 0.0000
44.8399 -98.3543 -0.0120 0.0000 0.0000 0.0000 -1.7237 -27.6690 0.4245 0.0000 0.0000 0.0000 0.0000 0.0000 0.0000 0.0000 0.0000 0.0000 0.0000 0.0000 0.0000 0.0000 0.0000 0.0000 -73.8312 -22.1081 -29.1535 -88.1078 -5.4855 -5.6694 0.0000 0.0000 0.0000 0.0000 0.0000 0.0000 79.0848 -14.4325 17.4388 83.1789 8.4803 -9.5504 0.0000 0.0000 0.0000
44.8320 -98.2986 -0.0122 0.0000 0.0000 0.0000 -1.7332 -27.9994 0.4321 0.0000 0.0000 0.0000 0.0000 0.0000 0.0000 0.0000 0.0000 0.0000 0.0000 0.0000 0.0000 0.0000 0.0000 0.0000 -74.8518 -21.4170 -27.7604 -88.5308 -1.9006 -1.9500 0.0000 0.0000 0.0000 0.0000 0.0000 0.0000 80.0148 -12.9947 15.4548 82.0820 11.0442 -12.6740 0.0000 0.0000 0.0000
